<svg xmlns="http://www.w3.org/2000/svg" class="icon icon-tabler icon-tabler-box-margin" width="250px" height="250px" viewBox="0 0 24 24" stroke-width="1.00" stroke="rgba(1, 1, 1, 1)" fill="none" stroke-linecap="round" stroke-linejoin="round"><rect x="0" y="0" width="100%" height="100%" stroke="none" stroke-width="0" fill="rgba(255, 255, 255, 1)"/><g transform="translate(2.40, 2.40) scale(0.8)"><path stroke="none" d="M0 0h24v24H0z" fill="none"/><path d="M8 8h8v8h-8z"/><path d="M4 4v.01"/><path d="M8 4v.01"/><path d="M12 4v.01"/><path d="M16 4v.01"/><path d="M20 4v.01"/><path d="M4 20v.01"/><path d="M8 20v.01"/><path d="M12 20v.01"/><path d="M16 20v.01"/><path d="M20 20v.01"/><path d="M20 16v.01"/><path d="M20 12v.01"/><path d="M20 8v.01"/><path d="M4 16v.01"/><path d="M4 12v.01"/><path d="M4 8v.01"/></g>
  
  
  
  
  
  
  
  
  
  
  
  
  
  
  
  
  
  
</svg>